<?xml version="1.0" encoding="UTF-8" standalone="no"?>
<!-- Created with Inkscape (http://www.inkscape.org/) -->

<svg
   xmlns:dc="http://purl.org/dc/elements/1.1/"
   xmlns:cc="http://creativecommons.org/ns#"
   xmlns:rdf="http://www.w3.org/1999/02/22-rdf-syntax-ns#"
   xmlns:svg="http://www.w3.org/2000/svg"
   xmlns="http://www.w3.org/2000/svg"
   version="1.1"
   width="2491.593"
   height="2510"
   id="svg3143">
  <metadata
     id="metadata3151">
    <rdf:RDF>
      <cc:Work
         rdf:about="">
        <dc:format>image/svg+xml</dc:format>
        <dc:type
           rdf:resource="http://purl.org/dc/dcmitype/StillImage" />
        <dc:title></dc:title>
      </cc:Work>
    </rdf:RDF>
  </metadata>
  <defs
     id="defs3149" />
  <path
     d="m 2270.258,1446.009 c 0,0 -135.641,0 -135.641,0 0,0 -1013.826,-677.327 -1013.826,-677.327 -29.042,-20.6 -64.596,-32.7 -102.901,-32.7 0,0 -355.643,0 -355.643,0 -98.211,0 -177.818,79.466 -177.818,177.514 0,97.991 79.607,177.452 177.818,177.452 0,0 298.898,0 298.898,0 0,0 1037.049,690.114 1037.049,690.114 24.512,12.744 52.343,19.956 81.929,19.956 0,0 174.49,0 174.49,0 C 2059.77,2163.53 1676.972,2410 1236.593,2410 669.17,2410 197.325,2000.822 100,1461.438 c 0,0 480.313,319.624 480.313,319.624 24.489,12.744 52.404,19.956 81.906,19.956 0,0 355.686,0 355.686,0 98.166,0 177.79,-79.47 177.79,-177.551 0,-97.992 -79.624,-177.458 -177.79,-177.458 0,0 -301.144,0 -301.144,0 0,0 -614.343,-410.454 -614.343,-410.454 C 204.925,502.612 673.74,100 1236.593,100 c 451.227,0 842.001,258.763 1032.073,635.982 0,0 -188.543,0 -188.543,0 -98.203,0 -177.805,79.466 -177.805,177.514 0,97.991 79.602,177.452 177.805,177.452 0,0 299.895,0 299.895,0 7.62,53.589 11.575,108.358 11.575,164.052 0,65.067 -5.385,128.876 -15.725,191.009 0,0 -105.61,0 -105.61,0 z"
     id="path3145"
     style="fill:#cb9904;fill-rule:evenodd" />
</svg>
