<?xml version="1.0" encoding="iso-8859-1"?>
<!-- Generator: Adobe Illustrator 18.1.1, SVG Export Plug-In . SVG Version: 6.00 Build 0)  -->
<svg xmlns="http://www.w3.org/2000/svg" xmlns:xlink="http://www.w3.org/1999/xlink" version="1.1" id="Capa_1" x="0px" y="0px" viewBox="0 0 23.625 23.625" style="enable-background:new 0 0 23.625 23.625;" xml:space="preserve" width="512px" height="512px">
<g>
	<path d="M11.812,0C5.289,0,0,5.289,0,11.812s5.289,11.813,11.812,11.813s11.813-5.29,11.813-11.813   S18.335,0,11.812,0z M17.812,13.812c0,0.551-0.448,1-1,1h-5c0,1.196,0,2.155,0,2.531c0,1.344-1,0.969-1,0.969l-6.5-6.5l6.5-6.5   c0,0,1-0.281,1,1c0,0.29,0,1.257,0,2.5h5c0.552,0,1,0.449,1,1V13.812z" fill="#FFFFFF"/>
</g>
<g>
</g>
<g>
</g>
<g>
</g>
<g>
</g>
<g>
</g>
<g>
</g>
<g>
</g>
<g>
</g>
<g>
</g>
<g>
</g>
<g>
</g>
<g>
</g>
<g>
</g>
<g>
</g>
<g>
</g>
</svg>
